<svg width="128" height="128" viewBox="0 0 128 128" fill="none" xmlns="http://www.w3.org/2000/svg">
  <defs>
    <linearGradient id="vb-bg" x1="12" y1="12" x2="116" y2="116" gradientUnits="userSpaceOnUse">
      <stop offset="0%" stop-color="#22D3EE" />
      <stop offset="55%" stop-color="#3B82F6" />
      <stop offset="100%" stop-color="#8B5CF6" />
    </linearGradient>
    <linearGradient id="vb-line" x1="24" y1="24" x2="104" y2="102" gradientUnits="userSpaceOnUse">
      <stop offset="0%" stop-color="#E0F2FE" />
      <stop offset="100%" stop-color="#FFFFFF" />
    </linearGradient>
  </defs>
  <rect x="10" y="10" width="108" height="108" rx="28" fill="url(#vb-bg)"/>
  <path d="M28 38H44L56 74L68 38H84L62 94H50L28 38Z" fill="url(#vb-line)"/>
  <path d="M84 38H102C108 38 112 42 112 48C112 53 109 56 104 58C109 60 112 63 112 69C112 76 107 82 98 82H84V38ZM96 54C99 54 101 52 101 49C101 46 99 45 96 45H93V54H96ZM97 74C101 74 103 72 103 69C103 66 101 64 97 64H93V74H97Z" fill="url(#vb-line)"/>
  <rect x="20" y="20" width="88" height="88" rx="22" stroke="rgba(255,255,255,0.4)" stroke-width="2"/>
</svg>
